<?xml version="1.0" encoding="utf-8"?>
<!-- Generator: Adobe Illustrator 27.6.1, SVG Export Plug-In . SVG Version: 6.00 Build 0)  -->
<svg version="1.1" id="Warstwa_1" xmlns="http://www.w3.org/2000/svg" xmlns:xlink="http://www.w3.org/1999/xlink" x="0px" y="0px"
	 viewBox="0 0 746.94 746.94" style="enable-background:new 0 0 746.94 746.94;" xml:space="preserve">
<style type="text/css">
	.st0{fill:#7E64E7;}
	.st1{fill:#634EC7;}
	.st2{fill:#5948BC;}
	.st3{fill:#4A3FAB;}
	.st4{fill:#6E55D4;}
	.st5{fill:#8D6AF8;}
	.st6{fill:#D8D8D8;}
</style>
<g>
	<g>
		<path class="st0" d="M32.89,317.52h38.88c4.63,0,8.38,3.75,8.38,8.38v38.88c0,4.63-3.75,8.38-8.38,8.38H32.89
			c-4.63,0-8.38-3.75-8.38-8.38V325.9C24.51,321.27,28.26,317.52,32.89,317.52z"/>
		<path class="st1" d="M167.73,484.27h45.15c4.75,0,8.61-3.85,8.61-8.61v-38.24c0-4.75-3.85-8.61-8.61-8.61h-47.3v53.31
			C165.58,483.31,166.54,484.27,167.73,484.27z"/>
		<path class="st2" d="M118.56,262.67h38.88c4.63,0,8.38,3.75,8.38,8.38v47.27h-47.27c-4.63,0-8.38-3.75-8.38-8.38v-38.88
			C110.18,266.42,113.93,262.67,118.56,262.67z"/>
		<path class="st3" d="M165.83,317.52h46.94c4.62,0,8.36,3.74,8.36,8.36v38.93c0,4.62-3.74,8.36-8.36,8.36h-46.94V317.52z"/>
		<path class="st4" d="M119.82,373.17h46.01l0,55.65l-52.4,0c-1.79,0-3.25-1.45-3.25-3.25l0-42.76
			C110.18,377.48,114.5,373.17,119.82,373.17z"/>
		<polygon class="st5" points="111.43,428.01 165.83,428.82 166.11,483.55 		"/>
	</g>
	<g>
		<g>
			<g>
				<path class="st6" d="M326.79,419.94v-74.61h-29.34v-13.91h75.11v13.91h-29.34v74.61H326.79z"/>
				<path class="st6" d="M413.78,420.83c-6.83,0-12.96-1.5-18.4-4.49c-5.44-2.99-9.72-7.1-12.83-12.33
					c-3.12-5.23-4.68-11.17-4.68-17.83c0-6.83,1.56-12.81,4.68-17.96c3.12-5.14,7.38-9.21,12.77-12.2
					c5.39-2.99,11.55-4.49,18.46-4.49c7,0,13.21,1.5,18.65,4.49c5.44,2.99,9.69,7.06,12.77,12.2c3.08,5.14,4.62,11.13,4.62,17.96
					c0,6.75-1.54,12.71-4.62,17.89c-3.08,5.18-7.36,9.27-12.83,12.27C426.89,419.33,420.7,420.83,413.78,420.83z M413.78,407.42
					c3.88,0,7.33-0.86,10.37-2.59c3.03-1.73,5.42-4.21,7.14-7.46c1.73-3.24,2.59-6.97,2.59-11.19c0-4.3-0.87-8.03-2.59-11.19
					c-1.73-3.16-4.11-5.6-7.14-7.33c-3.03-1.73-6.45-2.59-10.24-2.59s-7.21,0.87-10.24,2.59c-3.03,1.73-5.44,4.17-7.21,7.33
					c-1.77,3.16-2.66,6.89-2.66,11.19c0,4.22,0.89,7.95,2.66,11.19c1.77,3.25,4.17,5.73,7.21,7.46
					C406.7,406.56,410.07,407.42,413.78,407.42z"/>
				<path class="st6" d="M465.12,419.94v-67.52h15.05V371l-1.77-5.44c1.94-4.55,5.1-8.03,9.48-10.43c4.38-2.4,9.74-3.6,16.06-3.6
					v15.05c-0.59-0.08-1.18-0.15-1.77-0.19c-0.59-0.04-1.14-0.06-1.64-0.06c-6.07,0-10.88,1.73-14.42,5.18
					c-3.54,3.46-5.31,8.73-5.31,15.81v32.62H465.12z"/>
				<path class="st6" d="M546.68,420.83c-5.73,0-10.79-1.07-15.17-3.22c-4.38-2.15-7.82-5.44-10.31-9.86
					c-2.49-4.43-3.73-10.01-3.73-16.75v-38.57h15.93v36.54c0,5.99,1.39,10.48,4.17,13.47c2.78,2.99,6.66,4.49,11.63,4.49
					c3.71,0,6.95-0.76,9.74-2.28c2.78-1.52,4.93-3.79,6.45-6.83c1.52-3.04,2.28-6.79,2.28-11.25v-34.14h15.81v67.52h-15.05v-18.34
					l2.66,5.69c-2.28,4.3-5.61,7.63-9.99,9.99C556.71,419.65,551.91,420.83,546.68,420.83z"/>
				<path class="st6" d="M594.48,419.94l40.72-88.52h6.45l40.72,88.52h-6.96l-38.44-84.47h2.78l-38.31,84.47H594.48z M609.4,395.03
					l2.15-5.44h52.98l2.15,5.44H609.4z"/>
				<path class="st6" d="M698.42,419.94v-88.52h6.45v88.52H698.42z"/>
			</g>
		</g>
	</g>
</g>
</svg>
